#Comment line ignore any data following # character 
#Hierarchical Translation and Rotation (.htr) file 
[Header]	
#Header keywords are followed by a single value 
FileType HTR		#Single word string
DataType HTRS		#Translation followed by rotation and scale data
FileVersion 1		#integer
NumSegments 64		#integer
NumFrames 3		#integer
DataFrameRate 30		#integer, data frame rate in this file
EulerRotationOrder ZYX
CalibrationUnits mm
RotationUnits Degrees
GlobalAxisofGravity Y
BoneLengthAxis Y
ScaleFactor 1.00
[SegmentNames&Hierarchy]
#CHILD	PARENT
Pinger_Root GLOBAL
Pelvis Pinger_Root
L_Hip Pelvis
R_Hip Pelvis
Rear_Leg01 Pelvis
Spine1 Pelvis
L_Leg01 L_Hip
L_Leg02 L_Leg01
L_Leg03 L_Leg02
L_Foot L_Leg03
L_Toe1_01 L_Foot
L_Toe2_01 L_Foot
L_Toe3_01 L_Foot
planeAlignerLeft L_Foot
L_Toe1_02 L_Toe1_01
L_Toe1_03 L_Toe1_02
L_Toe2_02 L_Toe2_01
L_Toe2_03 L_Toe2_02
L_Toe3_02 L_Toe3_01
L_Toe3_03 L_Toe3_02
planeLockWeightLeft planeAlignerLeft
R_Leg01 R_Hip
R_Leg02 R_Leg01
R_Leg03 R_Leg02
R_Foot R_Leg03
planeAlignerRight R_Foot
R_Toe1_01 R_Foot
R_Toe2_01 R_Foot
R_Toe3_01 R_Foot
planeLockWeightRight planeAlignerRight
R_Toe1_02 R_Toe1_01
R_Toe1_03 R_Toe1_02
R_Toe2_02 R_Toe2_01
R_Toe2_03 R_Toe2_02
R_Toe3_02 R_Toe3_01
R_Toe3_03 R_Toe3_02
Rear_Leg02 Rear_Leg01
Rear_Leg03 Rear_Leg02
Rear_Leg04 Rear_Leg03
Rear_Foot Rear_Leg04
planeAlignerCenter Rear_Foot
Rear_Toe1_01 Rear_Foot
Rear_Toe2_01 Rear_Foot
Rear_Toe3_01 Rear_Foot
planeLockWeightCenter planeAlignerCenter
Rear_Toe1_02 Rear_Toe1_01
Rear_Toe1_03 Rear_Toe1_02
Rear_Toe2_02 Rear_Toe2_01
Rear_Toe2_03 Rear_Toe2_02
Rear_Toe3_02 Rear_Toe3_01
Rear_Toe3_03 Rear_Toe3_02
Back_Bone Spine1
Head Spine1
Motor_Bone Back_Bone
Ping_Mechanism Back_Bone
BN_LookIK Head
bottomMouth Head
L_Mouth01 Head
L_mouthFront Head
mouthGun Head
R_Mouth01 Head
R_mouthFront Head
TopMouth Head
weapon_bone Head
[BasePosition]
#SegmentName Tx, Ty, Tz, Rx, Ry, Rz, BoneLength
Pinger_Root 0.000000 0.000000 0.000000 -90.000000 0.000000 0.000000 10.000000 
Pelvis 0.000000 0.000000 0.000000 0.000000 0.000000 0.000000 10.000000 
L_Hip 0.000000 0.000000 0.000000 0.000000 0.000000 0.000000 10.000000 
R_Hip 0.000000 0.000000 0.000000 0.000000 0.000000 0.000000 10.000000 
Rear_Leg01 0.000000 0.000000 0.000000 0.000000 0.000000 0.000000 10.000000 
Spine1 0.000000 0.000000 0.000000 0.000000 0.000000 0.000000 10.000000 
L_Leg01 0.000000 0.000000 0.000000 0.000000 0.000000 0.000000 10.000000 
L_Leg02 0.000000 0.000000 0.000000 0.000000 0.000000 0.000000 10.000000 
L_Leg03 0.000000 0.000000 0.000000 0.000000 0.000000 0.000000 10.000000 
L_Foot 0.000000 0.000000 0.000000 0.000000 0.000000 0.000000 10.000000 
L_Toe1_01 0.000000 0.000000 0.000000 0.000000 0.000000 0.000000 10.000000 
L_Toe2_01 0.000000 0.000000 0.000000 0.000000 0.000000 0.000000 10.000000 
L_Toe3_01 0.000000 0.000000 0.000000 0.000000 0.000000 0.000000 10.000000 
planeAlignerLeft 0.000000 0.000000 0.000000 0.000000 0.000000 0.000000 10.000000 
L_Toe1_02 0.000000 0.000000 0.000000 0.000000 0.000000 0.000000 10.000000 
L_Toe1_03 0.000000 0.000000 0.000000 0.000000 0.000000 0.000000 10.000000 
L_Toe2_02 0.000000 0.000000 0.000000 0.000000 0.000000 0.000000 10.000000 
L_Toe2_03 0.000000 0.000000 0.000000 0.000000 0.000000 0.000000 10.000000 
L_Toe3_02 0.000000 0.000000 0.000000 0.000000 0.000000 0.000000 10.000000 
L_Toe3_03 0.000000 0.000000 0.000000 0.000000 0.000000 0.000000 10.000000 
planeLockWeightLeft 0.000000 0.000000 0.000000 0.000000 0.000000 0.000000 10.000000 
R_Leg01 0.000000 0.000000 0.000000 0.000000 0.000000 0.000000 10.000000 
R_Leg02 0.000000 0.000000 0.000000 0.000000 0.000000 0.000000 10.000000 
R_Leg03 0.000000 0.000000 0.000000 0.000000 0.000000 0.000000 10.000000 
R_Foot 0.000000 0.000000 0.000000 0.000000 0.000000 0.000000 10.000000 
planeAlignerRight 0.000000 0.000000 0.000000 0.000000 0.000000 0.000000 10.000000 
R_Toe1_01 0.000000 0.000000 0.000000 0.000000 0.000000 0.000000 10.000000 
R_Toe2_01 0.000000 0.000000 0.000000 0.000000 0.000000 0.000000 10.000000 
R_Toe3_01 0.000000 0.000000 0.000000 0.000000 0.000000 0.000000 10.000000 
planeLockWeightRight 0.000000 0.000000 0.000000 0.000000 0.000000 0.000000 10.000000 
R_Toe1_02 0.000000 0.000000 0.000000 0.000000 0.000000 0.000000 10.000000 
R_Toe1_03 0.000000 0.000000 0.000000 0.000000 0.000000 0.000000 10.000000 
R_Toe2_02 0.000000 0.000000 0.000000 0.000000 0.000000 0.000000 10.000000 
R_Toe2_03 0.000000 0.000000 0.000000 0.000000 0.000000 0.000000 10.000000 
R_Toe3_02 0.000000 0.000000 0.000000 0.000000 0.000000 0.000000 10.000000 
R_Toe3_03 0.000000 0.000000 0.000000 0.000000 0.000000 0.000000 10.000000 
Rear_Leg02 0.000000 0.000000 0.000000 0.000000 0.000000 0.000000 10.000000 
Rear_Leg03 0.000000 0.000000 0.000000 0.000000 0.000000 0.000000 10.000000 
Rear_Leg04 0.000000 0.000000 0.000000 0.000000 0.000000 0.000000 10.000000 
Rear_Foot 0.000000 0.000000 0.000000 0.000000 0.000000 0.000000 10.000000 
planeAlignerCenter 0.000000 0.000000 0.000000 0.000000 0.000000 0.000000 10.000000 
Rear_Toe1_01 0.000000 0.000000 0.000000 0.000000 0.000000 0.000000 10.000000 
Rear_Toe2_01 0.000000 0.000000 0.000000 0.000000 0.000000 0.000000 10.000000 
Rear_Toe3_01 0.000000 0.000000 0.000000 0.000000 0.000000 0.000000 10.000000 
planeLockWeightCenter 0.000000 0.000000 0.000000 0.000000 0.000000 0.000000 10.000000 
Rear_Toe1_02 0.000000 0.000000 0.000000 0.000000 0.000000 0.000000 10.000000 
Rear_Toe1_03 0.000000 0.000000 0.000000 0.000000 0.000000 0.000000 10.000000 
Rear_Toe2_02 0.000000 0.000000 0.000000 0.000000 0.000000 0.000000 10.000000 
Rear_Toe2_03 0.000000 0.000000 0.000000 0.000000 0.000000 0.000000 10.000000 
Rear_Toe3_02 0.000000 0.000000 0.000000 0.000000 0.000000 0.000000 10.000000 
Rear_Toe3_03 0.000000 0.000000 0.000000 0.000000 0.000000 0.000000 10.000000 
Back_Bone 0.000000 0.000000 0.000000 0.000000 0.000000 0.000000 10.000000 
Head 0.000000 0.000000 0.000000 0.000000 0.000000 0.000000 10.000000 
Motor_Bone 0.000000 0.000000 0.000000 0.000000 0.000000 0.000000 10.000000 
Ping_Mechanism 0.000000 0.000000 0.000000 0.000000 0.000000 0.000000 10.000000 
BN_LookIK 0.000000 0.000000 0.000000 0.000000 0.000000 0.000000 10.000000 
bottomMouth 0.000000 0.000000 0.000000 0.000000 0.000000 0.000000 10.000000 
L_Mouth01 0.000000 0.000000 0.000000 0.000000 0.000000 0.000000 10.000000 
L_mouthFront 0.000000 0.000000 0.000000 0.000000 0.000000 0.000000 10.000000 
mouthGun 0.000000 0.000000 0.000000 0.000000 0.000000 0.000000 10.000000 
R_Mouth01 0.000000 0.000000 0.000000 0.000000 0.000000 0.000000 10.000000 
R_mouthFront 0.000000 0.000000 0.000000 0.000000 0.000000 0.000000 10.000000 
TopMouth 0.000000 0.000000 0.000000 0.000000 0.000000 0.000000 10.000000 
weapon_bone 0.000000 0.000000 0.000000 0.000000 0.000000 0.000000 10.000000 
#Beginning of Data. Separated by tabs
#Fr	Tx	Ty	Tz	Rx	Ry	Rz	SF
[Pinger_Root]
54 0.000000 0.000000 0.000000 -0.000075 -0.000000 -0.000020 0.000000
55 0.000000 0.000000 0.000000 -0.000075 -0.000000 -0.000020 0.000000
56 0.000000 0.000000 0.000000 -0.000075 -0.000000 -0.000020 0.000000
[Pelvis]
54 79.288712 905.047058 4311.864258 -96.640839 -83.696526 89.009117 4406.537598
55 77.673828 906.370789 4381.590332 -97.109818 -84.120567 89.480797 4475.027832
56 76.304741 907.725037 4442.415527 -97.652016 -84.544067 90.025642 4534.847656
[L_Hip]
54 5.766392 125.831482 872.656799 160.158691 -45.484905 122.312202 881.701050
55 5.766392 125.831482 872.656799 160.158691 -45.484905 122.312202 881.701050
56 5.766392 125.831482 872.656799 160.158691 -45.484905 122.312202 881.701050
[R_Hip]
54 5.765438 125.836372 -872.654907 38.087841 49.812687 125.703735 881.699829
55 5.765438 125.836372 -872.654907 38.087841 49.812687 125.703735 881.699829
56 5.765438 125.836372 -872.654907 38.087841 49.812687 125.703735 881.699829
[Rear_Leg01]
54 -192.298416 -925.602966 -0.001907 169.839661 2.685318 -157.397339 945.367432
55 -192.298416 -925.602966 -0.001907 169.813629 2.580822 -157.776703 945.367432
56 -192.298416 -925.602966 -0.001907 169.788300 2.476156 -158.156006 945.367432
[Spine1]
54 290.604584 5.007505 0.000477 7.253394 -0.729398 17.852407 290.647736
55 290.604584 5.007505 0.000477 7.254682 -0.720085 18.275948 290.647736
56 290.604584 5.007505 0.000477 7.255971 -0.710597 18.515148 290.647736
[L_Leg01]
54 761.932007 -0.002384 -0.069261 22.723772 -13.979980 -10.911163 761.932068
55 761.932007 -0.002384 -0.069261 22.637722 -14.519376 -10.852741 761.932068
56 761.932007 -0.002384 -0.069261 22.550890 -15.058682 -10.793331 761.932068
[L_Leg02]
54 1441.140503 -0.000954 -0.000715 3.439627 0.086536 -127.418625 1441.140503
55 1441.140503 -0.000954 -0.000715 3.038732 -0.020272 -126.745789 1441.140503
56 1441.140503 -0.000954 -0.000715 2.636628 -0.122358 -126.072235 1441.140503
[L_Leg03]
54 1686.963989 -0.000715 -0.000954 -0.050413 0.024504 123.899086 1686.963989
55 1686.963989 -0.000715 -0.000954 -0.042917 0.019497 121.800293 1686.963989
56 1686.963989 -0.000715 -0.000954 -0.036466 0.016993 119.935257 1686.963989
[L_Foot]
54 3041.570068 -30.715107 11.297464 1.748812 12.956842 52.363129 3041.746094
55 3041.570068 -30.715107 11.297464 1.900668 13.041388 53.098309 3041.746094
56 3041.570068 -30.715107 11.297464 2.053673 13.124020 53.833954 3041.746094
[L_Toe1_01]
54 -188.216690 -224.732346 -21.137953 93.932045 -6.920656 -174.323380 293.899567
55 -188.216690 -224.732346 -21.137953 93.900284 -6.843470 -173.655914 293.899567
56 -188.216690 -224.732346 -21.137953 93.872871 -6.758317 -173.214508 293.899567
[L_Toe2_01]
54 200.746536 -219.926590 148.838394 -90.906342 -27.029902 -50.163704 332.896027
55 200.746536 -219.926590 148.838394 -90.506828 -26.560068 -51.417038 332.896027
56 200.746536 -219.926590 148.838394 -90.205582 -26.162893 -52.382172 332.896027
[L_Toe3_01]
54 188.832520 -219.859131 -191.078659 -99.275558 14.468633 -64.902618 347.140900
55 188.832520 -219.859131 -191.078659 -99.514870 14.171823 -66.369423 347.140900
56 188.832520 -219.859131 -191.078659 -99.717384 13.963608 -67.520554 347.140900
[planeAlignerLeft]
54 31.749882 -560.120117 102.646988 169.306686 -76.298271 89.968506 570.332336
55 33.331612 -577.960938 100.662750 169.306686 -76.298271 89.968506 587.607727
56 35.036621 -592.291931 98.526764 169.306686 -76.298271 89.968506 601.452271
[L_Toe1_02]
54 413.761139 0.000477 0.000000 0.000203 -25.410625 -0.000182 413.761139
55 413.761139 0.000477 0.000000 0.000203 -25.410625 -0.000182 413.761139
56 413.761139 0.000477 0.000000 0.000203 -25.410625 -0.000182 413.761139
[L_Toe1_03]
54 464.317322 0.000358 -0.000089 0.004020 56.052547 0.004020 464.317322
55 464.317322 0.000358 -0.000089 0.004097 56.702496 0.004097 464.317322
56 464.317322 0.000358 -0.000089 0.004176 57.352390 0.004176 464.317322
[L_Toe2_02]
54 342.235809 -0.000477 0.000238 0.001185 -74.333603 0.001185 342.235809
55 342.235809 -0.000477 0.000238 0.001185 -73.898544 0.001185 342.235809
56 342.235809 -0.000477 0.000238 0.001186 -73.463478 0.001186 342.235809
[L_Toe2_03]
54 420.210846 -0.000715 0.000000 -179.926453 89.125084 -179.922958 420.210846
55 420.210846 -0.000715 0.000000 0.000000 89.462593 0.003492 420.210846
56 420.210846 -0.000715 0.000000 -0.035504 88.048553 -0.032007 420.210846
[L_Toe3_02]
54 329.270111 0.000954 0.000000 0.001177 -81.828117 0.001177 329.270111
55 329.270111 0.000954 0.000000 0.001177 -81.417786 0.001177 329.270111
56 329.270111 0.000954 0.000000 0.001177 -81.007393 0.001177 329.270111
[L_Toe3_03]
54 439.137451 -0.001907 0.000954 -179.997971 72.578270 -179.994431 439.137451
55 439.137451 -0.001907 0.000954 -179.997421 74.796463 -179.993881 439.137451
56 439.137451 -0.001907 0.000954 -179.996780 76.757927 -179.993256 439.137451
[planeLockWeightLeft]
54 999.998718 0.097961 0.076027 -0.011826 -0.004376 0.005620 999.998779
55 999.998718 0.097961 0.076027 -0.011826 -0.004376 0.005620 999.998779
56 999.998718 0.097961 0.076027 -0.011826 -0.004376 0.005620 999.998779
[R_Leg01]
54 761.455627 -0.001907 -0.000358 121.410835 -12.584051 31.769518 761.455688
55 761.455627 -0.001907 -0.000358 121.396523 -13.232049 31.947456 761.455688
56 761.455627 -0.001907 -0.000358 121.380074 -13.880000 32.126034 761.455688
[R_Leg02]
54 1441.140625 0.000000 -0.000238 -1.613821 -0.330478 -126.146332 1441.140625
55 1441.140625 0.000000 -0.000238 -1.453464 -0.248471 -125.442215 1441.140625
56 1441.140625 0.000000 -0.000238 -1.292111 -0.168442 -124.737877 1441.140625
[R_Leg03]
54 1686.963989 0.000954 0.001431 0.084677 -0.048921 133.582153 1686.963989
55 1686.963989 0.000954 0.001431 0.075750 -0.043604 131.434952 1686.963989
56 1686.963989 0.000954 0.001431 0.069880 -0.039980 129.539673 1686.963989
[R_Foot]
54 3041.560059 -30.531288 -11.204481 -0.012268 -24.489996 56.565960 3041.734131
55 3041.560059 -30.531288 -11.204481 -0.325548 -24.550425 57.180290 3041.734131
56 3041.560059 -30.531288 -11.204481 -0.639671 -24.607794 57.795258 3041.734131
[planeAlignerRight]
54 -128.515106 -540.970215 -314.584137 -36.577137 -71.339012 -64.343925 638.848999
55 -126.755058 -558.913940 -312.409729 -36.577137 -71.339012 -64.343925 652.726196
56 -124.860840 -573.368408 -310.069733 -36.577137 -71.339012 -64.343925 663.690308
[R_Toe1_01]
54 -188.383347 -224.864899 21.052242 76.802071 -0.499797 -175.414108 294.101532
55 -188.383347 -224.864899 21.052242 76.778778 -0.609789 -174.469193 294.101532
56 -188.383347 -224.864899 21.052242 76.770226 -0.714859 -173.674301 294.101532
[R_Toe2_01]
54 200.637817 -220.002121 -148.787384 -90.947311 33.741714 -57.253307 332.857574
55 200.637817 -220.002121 -148.787384 -91.350494 33.153015 -58.311382 332.857574
56 200.637817 -220.002121 -148.787384 -91.641449 32.660183 -59.112732 332.857574
[R_Toe3_01]
54 188.606735 -220.092957 191.126343 -73.323189 -9.133097 -71.771309 347.192566
55 188.606735 -220.092957 191.126343 -73.281776 -8.870687 -72.948364 347.192566
56 188.606735 -220.092957 191.126343 -73.232658 -8.698010 -73.812431 347.192566
[planeLockWeightRight]
54 999.999329 0.000000 0.076017 -0.011823 -0.004379 -0.000027 999.999329
55 999.999329 0.000000 0.076017 -0.011823 -0.004379 -0.000027 999.999329
56 999.999329 0.000000 0.076017 -0.011823 -0.004379 -0.000027 999.999329
[R_Toe1_02]
54 413.762085 0.000477 -0.000119 0.001398 -24.193939 0.001398 413.762085
55 413.762085 0.000477 -0.000119 0.001398 -24.185087 0.001398 413.762085
56 413.762085 0.000477 -0.000119 0.001398 -24.176235 0.001398 413.762085
[R_Toe1_03]
54 464.317810 0.000000 0.001088 0.007924 72.964859 0.007924 464.317810
55 464.317810 0.000000 0.001088 0.007879 72.867836 0.007879 464.317810
56 464.317810 0.000000 0.001088 0.007835 72.770775 0.007835 464.317810
[R_Toe2_02]
54 342.234741 -0.000954 0.000238 0.001192 -69.963966 0.001192 342.234741
55 342.234741 -0.000954 0.000238 0.001193 -69.287216 0.001193 342.234741
56 342.234741 -0.000954 0.000238 0.001194 -68.610535 0.001194 342.234741
[R_Toe2_03]
54 420.210846 0.000715 -0.000268 0.012919 79.573997 0.012919 420.210846
55 420.210846 0.000715 -0.000268 0.011273 78.046059 0.011273 420.210846
56 420.210846 0.000715 -0.000268 0.009999 76.518402 0.009999 420.210846
[R_Toe3_02]
54 329.270355 -0.000477 -0.000954 0.001181 -77.132729 0.001181 329.270355
55 329.270355 -0.000477 -0.000954 0.001182 -76.211945 0.001182 329.270355
56 329.270355 -0.000477 -0.000954 0.001183 -75.291161 0.001183 329.270355
[R_Toe3_03]
54 439.137939 0.000238 0.001431 0.000000 89.756912 0.003500 439.137939
55 439.137939 0.000238 0.001431 -0.029222 87.602325 -0.025724 439.137939
56 439.137939 0.000238 0.001431 -0.015691 85.274612 -0.012192 439.137939
[Rear_Leg02]
54 1162.777710 -0.029802 0.005960 0.813684 -2.879223 -122.001907 1162.777710
55 1162.777710 -0.029802 0.005960 0.729016 -2.901389 -120.838715 1162.777710
56 1162.777710 -0.029802 0.005960 0.643922 -2.921833 -119.675568 1162.777710
[Rear_Leg03]
54 607.192505 -0.013351 -0.073195 0.010596 -0.004887 65.870583 607.192505
55 607.192505 -0.013351 -0.073195 0.008540 -0.003495 65.236443 607.192505
56 607.192505 -0.013351 -0.073195 0.006470 -0.002127 64.602287 607.192505
[Rear_Leg04]
54 995.874512 -0.020504 -0.011921 -0.042605 -0.016882 61.381844 995.874573
55 995.874512 -0.020504 -0.011921 -0.041590 -0.015927 60.110985 995.874573
56 995.874512 -0.020504 -0.011921 -0.040596 -0.014949 58.840279 995.874573
[Rear_Foot]
54 3096.176270 -0.067472 -0.041425 -143.979248 85.684753 47.425865 3096.176270
55 3096.176270 -0.067472 -0.041425 -143.581451 85.714310 47.773338 3096.176270
56 3096.176270 -0.067472 -0.041425 -143.178513 85.743614 48.125824 3096.176270
[planeAlignerCenter]
54 1.038857 -16.665236 -744.582581 12.240769 -0.001473 179.998184 744.769775
55 1.038990 -14.856255 -762.202209 12.240772 -0.001473 179.998184 762.347717
56 1.039410 -12.897644 -776.255615 12.240772 -0.001473 179.998184 776.363464
[Rear_Toe1_01]
54 0.653352 83.966492 -371.173737 0.280700 39.063984 90.407639 380.553192
55 0.653352 83.966492 -371.173737 0.288381 40.345333 90.413063 380.553192
56 0.653352 83.966492 -371.173737 0.297763 41.401485 90.415276 380.553192
[Rear_Toe2_01]
54 178.200760 -294.826019 -362.060547 -7.376239 32.982582 -66.266220 499.765686
55 178.200760 -294.826019 -362.060547 -7.233908 33.965939 -66.163521 499.765686
56 178.200760 -294.826019 -362.060547 -7.110633 34.752312 -66.069168 499.765686
[Rear_Toe3_01]
54 -153.359680 -308.780914 -362.060852 3.389694 32.221161 -112.506348 499.952881
55 -153.359680 -308.780914 -362.060852 3.317808 33.188160 -112.569969 499.952881
56 -153.359680 -308.780914 -362.060852 3.251104 33.957802 -112.637695 499.952881
[planeLockWeightCenter]
54 1000.000000 0.000305 0.076256 -0.011814 -0.004373 -0.000015 1000.000000
55 1000.000000 0.000305 0.076256 -0.011814 -0.004373 -0.000015 1000.000000
56 1000.000000 0.000305 0.076256 -0.011814 -0.004373 -0.000015 1000.000000
[Rear_Toe1_02]
54 379.707825 0.194073 0.000477 0.000225 -32.890263 0.005102 379.707855
55 379.707825 0.194073 0.000477 -0.000314 -32.654705 0.006974 379.707855
56 379.707825 0.194073 0.000477 -0.000290 -32.332878 0.006961 379.707855
[Rear_Toe1_03]
54 500.129700 0.165701 0.000119 -0.002379 60.649418 0.002443 500.129761
55 500.129700 0.165701 0.000119 -0.000882 58.082569 0.005182 500.129761
56 500.129700 0.165701 0.000119 0.000298 55.517025 0.007621 500.129761
[Rear_Toe2_02]
54 340.494507 0.000238 -0.000954 0.001188 -71.976692 0.001188 340.494507
55 340.494507 0.000238 -0.000954 0.001188 -71.930862 0.001188 340.494507
56 340.494507 0.000238 -0.000954 0.001188 -71.885048 0.001188 340.494507
[Rear_Toe2_03]
54 433.103577 0.000000 0.000238 0.008066 73.266525 0.008066 433.103546
55 433.103577 0.000000 0.000238 0.008021 73.171783 0.008021 433.103546
56 433.103577 0.000000 0.000238 0.007976 73.077049 0.007976 433.103546
[Rear_Toe3_02]
54 340.494141 -0.000358 -0.000477 0.001193 -69.530319 0.001193 340.494171
55 340.494141 -0.000358 -0.000477 0.001193 -69.519485 0.001193 340.494171
56 340.494141 -0.000358 -0.000477 0.001193 -69.508659 0.001193 340.494171
[Rear_Toe3_03]
54 433.103577 0.001431 -0.000238 0.006577 69.442863 0.006577 433.103546
55 433.103577 0.001431 -0.000238 0.006557 69.379173 0.006557 433.103546
56 433.103577 0.001431 -0.000238 0.006537 69.315453 0.006537 433.103546
[Back_Bone]
54 1312.175781 -701.934692 0.000954 0.642324 0.017149 -89.936852 1488.125488
55 1312.175781 -701.934692 0.000954 0.853312 0.023251 -89.989006 1488.125488
56 1312.175781 -701.934692 0.000954 1.035220 0.028473 -89.795067 1488.125488
[Head]
54 1406.159424 809.709290 0.001431 0.089416 -1.473771 5.879049 1622.625488
55 1406.159424 809.709290 0.001431 0.081809 -1.473819 6.182583 1622.625488
56 1406.159424 809.709290 0.001431 0.074202 -1.473826 6.486119 1622.625488
[Motor_Bone]
54 1158.364380 -417.834747 0.000477 -0.095385 0.076104 -105.915718 1231.419434
55 1158.364380 -417.834747 0.000477 -0.095385 0.076104 -105.915718 1231.419434
56 1158.364380 -417.834747 0.000477 -0.095385 0.076104 -105.915703 1231.419434
[Ping_Mechanism]
54 1245.541382 -444.368866 1.075310 0.000103 -0.000053 82.120995 1322.436401
55 1243.337158 -443.641968 0.818383 0.000103 -0.000053 82.120995 1320.115967
56 1241.133057 -442.915009 0.561457 0.000103 -0.000053 82.120995 1317.795654
[BN_LookIK]
54 193.241119 1380.371704 -0.002861 0.000000 89.965736 -31.038179 1393.832153
55 193.241119 1380.371704 -0.002861 0.000000 89.965736 -31.038179 1393.832153
56 193.241119 1380.371704 -0.002861 0.000000 89.965736 -31.038179 1393.832153
[bottomMouth]
54 -435.092926 615.759399 -0.000954 -0.000022 0.000016 73.527184 753.966492
55 -435.092926 615.759399 -0.000954 -0.000022 0.000016 73.527184 753.966492
56 -435.092926 615.759399 -0.000954 -0.000022 0.000016 73.527184 753.966492
[L_Mouth01]
54 554.440979 7.658243 838.222046 150.204178 23.759130 109.605339 1005.027161
55 554.440979 7.658243 838.222046 150.204178 23.759130 109.605339 1005.027161
56 554.440979 7.658243 838.222046 150.204178 23.759130 109.605339 1005.027161
[L_mouthFront]
54 551.629089 934.514771 339.150421 0.000081 2.804060 79.119301 1136.941284
55 551.629089 934.514771 339.150421 0.000081 2.804060 79.119301 1136.941284
56 551.629089 934.514771 339.150421 0.000081 2.804060 79.119301 1136.941284
[mouthGun]
54 55.332661 1627.420898 0.000000 0.000023 0.000009 -11.038128 1628.361328
55 55.332661 1627.420898 0.000000 0.000023 0.000009 -11.038128 1628.361328
56 55.332661 1627.420898 0.000000 0.000023 0.000009 -11.038128 1628.361328
[R_Mouth01]
54 554.442383 7.659197 -838.223938 29.795891 -23.759109 109.605331 1005.029541
55 554.442383 7.659197 -838.223938 29.795891 -23.759109 109.605331 1005.029541
56 554.442383 7.659197 -838.223938 29.795891 -23.759109 109.605331 1005.029541
[R_mouthFront]
54 551.629089 934.514282 -339.151367 0.000029 -2.803930 79.119133 1136.941162
55 551.629089 934.514282 -339.151367 0.000029 -2.803930 79.119133 1136.941162
56 551.629089 934.514282 -339.151367 0.000029 -2.803930 79.119133 1136.941162
[TopMouth]
54 461.269867 -56.106091 -0.008583 -0.000059 -0.000268 92.025169 464.669525
55 461.269867 -56.106091 -0.008583 -0.000059 -0.000268 92.025169 464.669525
56 461.269867 -56.106091 -0.008583 -0.000059 -0.000268 92.025169 464.669525
[weapon_bone]
54 -987.239868 1448.372803 0.001431 0.000000 89.965736 -31.038221 1752.833740
55 -987.239868 1448.372803 0.001431 0.000000 89.965736 -31.038221 1752.833740
56 -987.239868 1448.372803 0.001431 0.000000 89.965736 -31.038221 1752.833740
